<?xml version="1.0" encoding="UTF-8" standalone="no"?>
<!-- Created with Inkscape (http://www.inkscape.org/) -->

<svg
   xmlns:dc="http://purl.org/dc/elements/1.1/"
   xmlns:cc="http://creativecommons.org/ns#"
   xmlns:rdf="http://www.w3.org/1999/02/22-rdf-syntax-ns#"
   xmlns:svg="http://www.w3.org/2000/svg"
   xmlns="http://www.w3.org/2000/svg"
   xmlns:sodipodi="http://sodipodi.sourceforge.net/DTD/sodipodi-0.dtd"
   xmlns:inkscape="http://www.inkscape.org/namespaces/inkscape"
   id="svg2"
   version="1.1"
   inkscape:version="0.91 r13725"
   xml:space="preserve"
   width="96.700012"
   height="113.3875"
   viewBox="0 0 96.700012 113.3875"
   sodipodi:docname="logo_hltpr_rgb_HLT.svg"><metadata
     id="metadata8"><rdf:RDF><cc:Work
         rdf:about=""><dc:format>image/svg+xml</dc:format><dc:type
           rdf:resource="http://purl.org/dc/dcmitype/StillImage" /><dc:title></dc:title></cc:Work></rdf:RDF></metadata><defs
     id="defs6" /><sodipodi:namedview
     pagecolor="#ffffff"
     bordercolor="#666666"
     borderopacity="1"
     objecttolerance="10"
     gridtolerance="10"
     guidetolerance="10"
     inkscape:pageopacity="0"
     inkscape:pageshadow="2"
     inkscape:window-width="1400"
     inkscape:window-height="797"
     id="namedview4"
     showgrid="false"
     inkscape:zoom="3.0530882"
     inkscape:cx="71.096194"
     inkscape:cy="42.797522"
     inkscape:window-x="0"
     inkscape:window-y="0"
     inkscape:window-maximized="0"
     inkscape:current-layer="g12" /><g
     id="g10"
     inkscape:groupmode="layer"
     inkscape:label="ink_ext_XXXXXX"
     transform="matrix(1.25,0,0,-1.25,0,113.3875)"><g
       id="g12"
       transform="scale(0.1,0.1)"><path
         d="m 424.984,480.098 35.09,0 0,-94.09 19.399,0 0,94.09 35.25,0 0,16.773 -89.739,0 0,-16.773 z m -57.41,-94.09 75.762,0 0,16.785 -56.356,0 0,94.078 -19.406,0 0,-110.863 z m -104.449,0 19.41,0 0,50 50.449,0 0,-50 19.411,0 0,110.863 -19.411,0 0,-44.094 -50.449,0 0,44.094 -19.41,0 0,-110.863"
         style="fill:#ffffff;fill-opacity:1;fill-rule:nonzero;stroke:none"
         id="path48"
         inkscape:connector-curvature="0" /><path
         d="m 540.598,440.352 c 0,87.125 -70.2,157.753 -156.797,157.753 -86.606,0 -156.805,-70.628 -156.805,-157.753 0,-87.11 70.199,-157.735 156.805,-157.735 38.277,0 73.34,13.848 100.578,36.778 l 52.801,-16.883 -28.524,42.703 c 19.961,26.476 31.942,59.348 31.942,95.137 m -188.2,-54.336 -19.418,0 0,50 -50.453,0 0,-50 -19.398,0 0,110.847 19.398,0 0,-44.09 50.453,0 0,44.09 19.418,0 0,-110.847 z m 90.93,0 -75.762,0 0,110.847 19.422,0 0,-94.07 56.34,0 0,-16.777 z m 36.149,94.086 0,-94.086 -19.411,0 0,94.086 -35.078,0 0,16.761 89.731,0 0,-16.761 -35.242,0"
         style="fill:#2f56ae;fill-opacity:1;fill-rule:nonzero;stroke:none"
         id="path50"
         inkscape:connector-curvature="0" /><path
         d="m 622.914,439.355 c 0,132.864 -108.09,240.961 -240.941,240.961 -132.852,0 -240.938,-108.097 -240.938,-240.961 0,-53.945 17.817,-103.796 47.887,-144.003 l -47.887,-69.082 88.551,26.621 c 41.547,-34.024 94.617,-54.473 152.387,-54.473 132.851,0 240.941,108.074 240.941,240.937 m -30,0 c 0,-116.308 -94.633,-210.937 -210.941,-210.937 -116.309,0 -210.938,94.629 -210.938,210.937 0,116.325 94.629,210.961 210.938,210.961 116.308,0 210.941,-94.636 210.941,-210.961 m -5.809,0.008 c 0,113.102 -92.023,205.125 -205.132,205.125 l 0,-7.988 c 108.703,0 197.136,-88.434 197.136,-197.137 l 7.996,0 z m -205.132,189.703 0,-7.988 c 100.199,0 181.718,-81.523 181.718,-181.715 l 7.993,0 c 0,104.606 -85.114,189.703 -189.711,189.703 m 0,-14.257 0,-7.993 c 92.328,0 167.441,-75.117 167.441,-167.453 l 7.988,0 c 0,96.746 -78.703,175.446 -175.429,175.446"
         style="fill:#88b5e4;fill-opacity:1;fill-rule:nonzero;stroke:none"
         id="path52"
         inkscape:connector-curvature="0" /></g></g></svg>