<?xml version="1.0" encoding="UTF-8" standalone="no"?>
<!-- Created with Inkscape (http://www.inkscape.org/) -->

<svg
   xmlns:dc="http://purl.org/dc/elements/1.1/"
   xmlns:cc="http://creativecommons.org/ns#"
   xmlns:rdf="http://www.w3.org/1999/02/22-rdf-syntax-ns#"
   xmlns:svg="http://www.w3.org/2000/svg"
   xmlns="http://www.w3.org/2000/svg"
   xmlns:sodipodi="http://sodipodi.sourceforge.net/DTD/sodipodi-0.dtd"
   xmlns:inkscape="http://www.inkscape.org/namespaces/inkscape"
   id="svg2"
   version="1.1"
   inkscape:version="0.91 r13725"
   xml:space="preserve"
   width="264.70001"
   height="113.3875"
   viewBox="0 0 264.70001 113.3875"
   sodipodi:docname="logo_hltpr_rgb_RWTH.svg"><metadata
     id="metadata8"><rdf:RDF><cc:Work
         rdf:about=""><dc:format>image/svg+xml</dc:format><dc:type
           rdf:resource="http://purl.org/dc/dcmitype/StillImage" /><dc:title></dc:title></cc:Work></rdf:RDF></metadata><defs
     id="defs6" /><sodipodi:namedview
     pagecolor="#ffffff"
     bordercolor="#666666"
     borderopacity="1"
     objecttolerance="10"
     gridtolerance="10"
     guidetolerance="10"
     inkscape:pageopacity="0"
     inkscape:pageshadow="2"
     inkscape:window-width="1400"
     inkscape:window-height="797"
     id="namedview4"
     showgrid="false"
     inkscape:zoom="3.0530882"
     inkscape:cx="152.01545"
     inkscape:cy="29.696033"
     inkscape:window-x="47"
     inkscape:window-y="136"
     inkscape:window-maximized="0"
     inkscape:current-layer="g12" /><g
     id="g10"
     inkscape:groupmode="layer"
     inkscape:label="ink_ext_XXXXXX"
     transform="matrix(1.25,0,0,-1.25,0,113.3875)"><g
       id="g12"
       transform="scale(0.1,0.1)"><path
         d="m 1340.85,412.031 20.53,0 c 19.61,0 30.18,-9.961 30.18,-29.875 0,-23.23 -11.78,-32.285 -32.6,-32.285 l -18.11,0 0,62.16 z m -43.44,-183.465 43.44,0 0,91.129 23.24,0 c 17.5,0 25.04,-10.261 25.66,-27.156 l 1.2,-41.348 c 0.29,-8.437 1.2,-16.582 5.43,-22.625 l 47.07,0 0,1.805 c -8.14,4.238 -9.35,15.996 -9.66,38.621 -0.59,45.571 -5.12,61.875 -34.69,65.793 l 0,0.598 c 24.44,5.137 35.9,24.441 35.9,53.113 0,36.817 -21.72,55.527 -57.33,55.527 l -80.26,0 0,-215.457"
         style="fill:#88b5e4;fill-opacity:1;fill-rule:nonzero;stroke:none"
         id="path14"
         inkscape:connector-curvature="0" /><path
         d="m 656.77,444.02 0,-150.27 c 0,-57.637 33.5,-69.414 68.8,-69.414 35.3,0 68.8,14.484 68.8,69.414 l 0,150.27 -43.45,0 0,-150.27 c 0,-21.426 -5.13,-37.422 -25.35,-37.422 -20.21,0 -25.34,15.996 -25.34,37.422 l 0,150.27 -43.46,0"
         style="fill:#88b5e4;fill-opacity:1;fill-rule:nonzero;stroke:none"
         id="path16"
         inkscape:connector-curvature="0" /><path
         d="m 805.01,444.02 0,-215.446 39.83,0 0,150.871 0.6,0 53.11,-150.871 49.49,0 0,215.446 -39.83,0 0,-147.555 -0.61,0 -52.5,147.555 -50.09,0"
         style="fill:#88b5e4;fill-opacity:1;fill-rule:nonzero;stroke:none"
         id="path18"
         inkscape:connector-curvature="0" /><path
         d="m 959.21,228.574 43.4492,0 0,215.445 -43.4492,0 0,-215.445 z"
         style="fill:#88b5e4;fill-opacity:1;fill-rule:nonzero;stroke:none"
         id="path20"
         inkscape:connector-curvature="0" /><path
         d="m 1005.65,444.02 49.48,-215.446 55.83,0 49.47,215.446 -44.96,0 -31.97,-159.332 -0.9,0 -30.49,159.332 -46.46,0"
         style="fill:#88b5e4;fill-opacity:1;fill-rule:nonzero;stroke:none"
         id="path22"
         inkscape:connector-curvature="0" /><path
         d="m 1164.31,444.02 0,-215.446 123.42,0 0,35.598 -79.96,0 0,57.937 72.42,0 0,35.618 -72.42,0 0,50.679 76.94,0 0,35.614 -120.4,0"
         style="fill:#88b5e4;fill-opacity:1;fill-rule:nonzero;stroke:none"
         id="path24"
         inkscape:connector-curvature="0" /><path
         d="m 1438.61,295.859 0,-8.75 c 0,-39.843 19.31,-62.773 68.5,-62.773 47.07,0 74.83,20.519 74.83,66.094 0,26.25 -8.45,42.843 -41.04,57.031 l -33.49,14.473 c -18.41,7.851 -22.33,15.996 -22.33,29.277 0,12.668 5.13,25.051 24.74,25.051 16.59,0 23.54,-11.77 23.54,-31.992 l 41.64,0 0,6.043 c 0,41.339 -28.07,57.925 -66.69,57.925 -41.04,0 -66.68,-21.422 -66.68,-63.355 0,-35.918 17.8,-51.914 56.42,-65.188 28.67,-9.961 38.63,-17.195 38.63,-36.812 0,-18.106 -12.68,-26.555 -25.95,-26.555 -22.94,0 -28.67,12.969 -28.67,33.195 l 0,6.336 -43.45,0"
         style="fill:#88b5e4;fill-opacity:1;fill-rule:nonzero;stroke:none"
         id="path26"
         inkscape:connector-curvature="0" /><path
         d="m 1587.62,228.574 43.4492,0 0,215.445 -43.4492,0 0,-215.445 z"
         style="fill:#88b5e4;fill-opacity:1;fill-rule:nonzero;stroke:none"
         id="path28"
         inkscape:connector-curvature="0" /><path
         d="m 1856.77,444.02 -30.18,-83.278 -0.6,0 -28.36,83.278 -160.86,0 0,-35.614 47.07,0 0,-179.832 43.46,0 0,179.832 36.65,0 40.6,-95.047 0,-84.785 43.47,0 0,84.785 55.83,130.661 -47.08,0"
         style="fill:#88b5e4;fill-opacity:1;fill-rule:nonzero;stroke:none"
         id="path30"
         inkscape:connector-curvature="0" /><path
         d="m 275.063,463.617 -72,0 0,216.406 118.067,0 c 32.02,0.012 59.63,-20.714 68.64,-48.199 8.34,-25.457 1.21,-53.117 -17.61,-72.808 2.5,-6.782 4.94,-12.09 7.26,-18.18 5.23,-12.051 10.01,-24.098 15.24,-36.004 l 17.13,-41.215 -73.01,0 c 0,-0.043 -0.58,1.738 -1.16,2.465 -2.9,6.383 -5.52,13.215 -8.42,19.594 l -17.56,41.66 c -6.97,16.84 -13.94,32.754 -20.898,49.578 8.688,0.242 15.188,-1.387 23.578,2.473 5.9,2.898 14.84,10.109 15.07,23.937 -0.23,6.852 -2.13,12.043 -6.66,17.442 -4.55,5.019 -11.13,8.742 -19.7,8.859 0,0 -27.975,0.008 -27.967,0 l 0,-166.008"
         style="fill:#2f56ae;fill-opacity:1;fill-rule:nonzero;stroke:none"
         id="path32"
         inkscape:connector-curvature="0" /><path
         d="m 1027.11,680.027 0,-216.41 -71.99,0 0,88.242 -50.41,0 0,-88.242 c -13.07,0 -27.15,0.145 -40.2,0 l -31.8,0 0,166.332 -50.36,0 0,-166.332 -72,0 0,166.332 -50.8,0 0,-166.332 -74.17,0 c -12.92,31.203 -26.55,62.703 -39.18,93.762 -1.45,6.531 -2.91,13.07 -4.79,19.453 l 0,-113.215 -74.32,0 c -14.73,34.254 -28.88,67.824 -43.58,102.582 -5.08,12.039 -9.25,21.836 -14.51,34.36 l -0.72,1.636 -11.45,26.852 -16.37,38.351 c -1.44,4.348 -3.76,8.282 -5.22,12.629 l 74.15,0 c 15.24,-37.007 30.62,-73.586 46.59,-110.015 l 0.44,-0.871 c -0.58,4.211 -1.9,9.582 -2.62,13.636 l 0,64.59 c 0.13,10.313 0,22.071 0,32.66 l 74.31,0 c 0.94,-2.355 1.45,-3.629 2.18,-5.519 8.71,-20.461 16.99,-40.778 25.7,-61.102 l 19.45,-44.265 c -0.44,4.648 -1.46,9.14 -2.04,13.636 l 0,97.25 291.31,0 0,-78.089 50.41,0 0,78.089 71.99,0"
         style="fill:#2f56ae;fill-opacity:1;fill-rule:nonzero;stroke:none"
         id="path34"
         inkscape:connector-curvature="0" /><path
         d="m 1284.16,680.051 -53.96,0 -45.16,-170.594 -45.15,170.594 -53.97,0 -57.28,-216.434 45.47,0 10,45.774 57.6,0 9.99,-45.774 66.68,0 10,45.774 57.6,0 10,-45.774 45.47,0 -57.29,216.434 z m -192.47,-134.891 20.91,97.301 0.61,0 20.92,-97.301 -42.44,0 z m 144.27,0 20.93,97.301 0.59,0 20.92,-97.301 -42.44,0"
         style="fill:#88b5e4;fill-opacity:1;fill-rule:nonzero;stroke:none"
         id="path36"
         inkscape:connector-curvature="0" /><path
         d="m 1471.45,606.199 c 0,31.379 -4.52,76.949 -66.69,76.949 -65.17,0 -73.33,-46.468 -73.33,-111.949 0,-65.48 8.16,-111.953 73.33,-111.953 57.03,0 68.5,40.133 68.5,86.606 l -43.45,0 c 0,-46.473 -11.47,-54.622 -27.16,-54.622 -18.71,0 -27.76,11.766 -27.76,76.95 0,60.953 5.13,82.98 27.15,82.98 19.61,0 25.96,-13.582 25.96,-44.961 l 43.45,0"
         style="fill:#88b5e4;fill-opacity:1;fill-rule:nonzero;stroke:none"
         id="path38"
         inkscape:connector-curvature="0" /><path
         d="m 1481.84,463.617 43.64,0 0,96.078 50.92,0 0,-96.078 43.65,0 0,216.406 -43.65,0 0,-82.746 -50.92,0 0,82.746 -43.64,0 0,-216.406"
         style="fill:#88b5e4;fill-opacity:1;fill-rule:nonzero;stroke:none"
         id="path40"
         inkscape:connector-curvature="0" /><path
         d="m 1629.52,680.07 0,-216.453 123.99,0 0,35.77 -80.33,0 0,58.211 72.75,0 0,35.769 -72.75,0 0,50.93 77.29,0 0,35.773 -120.95,0"
         style="fill:#88b5e4;fill-opacity:1;fill-rule:nonzero;stroke:none"
         id="path42"
         inkscape:connector-curvature="0" /><path
         d="m 1759.99,680.023 0,-216.406 40.01,0 0,151.547 0.6,0 53.35,-151.547 49.71,0 0,216.406 -40.01,0 0,-148.207 -0.61,0 -52.74,148.207 -50.31,0"
         style="fill:#88b5e4;fill-opacity:1;fill-rule:nonzero;stroke:none"
         id="path44"
         inkscape:connector-curvature="0" /></g></g></svg>